<svg width="57" height="136" viewBox="0 0 57 136" fill="none" xmlns="http://www.w3.org/2000/svg">
<rect x="28" width="1" height="80" fill="#D1D1DF"/>
<rect x="1" y="80.5" width="55" height="55" rx="27.5" fill="#FAFAFA"/>
<rect x="1" y="80.5" width="55" height="55" rx="27.5" stroke="#D1D1DF"/>
<path d="M25.052 114.176C24.0387 114.176 23.148 113.936 22.38 113.456C21.6227 112.976 21.0307 112.304 20.604 111.44C20.188 110.565 19.98 109.552 19.98 108.4C19.98 107.237 20.188 106.224 20.604 105.36C21.0307 104.496 21.6227 103.824 22.38 103.344C23.148 102.864 24.0387 102.624 25.052 102.624C26.0653 102.624 26.9507 102.864 27.708 103.344C28.476 103.824 29.068 104.496 29.484 105.36C29.9107 106.224 30.124 107.237 30.124 108.4C30.124 109.552 29.9107 110.565 29.484 111.44C29.068 112.304 28.476 112.976 27.708 113.456C26.9507 113.936 26.0653 114.176 25.052 114.176ZM25.052 111.936C25.5747 111.936 26.0227 111.797 26.396 111.52C26.78 111.232 27.0733 110.821 27.276 110.288C27.4893 109.755 27.596 109.125 27.596 108.4C27.596 107.664 27.4893 107.035 27.276 106.512C27.0733 105.979 26.78 105.573 26.396 105.296C26.0227 105.008 25.5747 104.864 25.052 104.864C24.5293 104.864 24.076 105.008 23.692 105.296C23.3187 105.573 23.0253 105.979 22.812 106.512C22.6093 107.035 22.508 107.664 22.508 108.4C22.508 109.125 22.6093 109.755 22.812 110.288C23.0253 110.821 23.3187 111.232 23.692 111.52C24.076 111.797 24.5293 111.936 25.052 111.936ZM33.2174 114V105.424L30.8974 106.352V104.112L34.1774 102.8H35.8094V114H33.2174Z" fill="#87879D"/>
</svg>
