<svg width="57" height="136" viewBox="0 0 57 136" fill="none" xmlns="http://www.w3.org/2000/svg">
<rect x="28" width="1" height="80" fill="#D1D1DF"/>
<rect x="1" y="80.5" width="55" height="55" rx="27.5" fill="#FAFAFA"/>
<rect x="1" y="80.5" width="55" height="55" rx="27.5" stroke="#D1D1DF"/>
<path d="M23.552 114.176C22.5387 114.176 21.648 113.936 20.88 113.456C20.1227 112.976 19.5307 112.304 19.104 111.44C18.688 110.565 18.48 109.552 18.48 108.4C18.48 107.237 18.688 106.224 19.104 105.36C19.5307 104.496 20.1227 103.824 20.88 103.344C21.648 102.864 22.5387 102.624 23.552 102.624C24.5653 102.624 25.4507 102.864 26.208 103.344C26.976 103.824 27.568 104.496 27.984 105.36C28.4107 106.224 28.624 107.237 28.624 108.4C28.624 109.552 28.4107 110.565 27.984 111.44C27.568 112.304 26.976 112.976 26.208 113.456C25.4507 113.936 24.5653 114.176 23.552 114.176ZM23.552 111.936C24.0747 111.936 24.5227 111.797 24.896 111.52C25.28 111.232 25.5733 110.821 25.776 110.288C25.9893 109.755 26.096 109.125 26.096 108.4C26.096 107.664 25.9893 107.035 25.776 106.512C25.5733 105.979 25.28 105.573 24.896 105.296C24.5227 105.008 24.0747 104.864 23.552 104.864C23.0293 104.864 22.576 105.008 22.192 105.296C21.8187 105.573 21.5253 105.979 21.312 106.512C21.1093 107.035 21.008 107.664 21.008 108.4C21.008 109.125 21.1093 109.755 21.312 110.288C21.5253 110.821 21.8187 111.232 22.192 111.52C22.576 111.797 23.0293 111.936 23.552 111.936ZM29.6434 114V112.24L34.3794 107.552C34.5607 107.381 34.7047 107.216 34.8114 107.056C34.918 106.885 34.998 106.715 35.0514 106.544C35.1047 106.373 35.1314 106.203 35.1314 106.032C35.1314 105.669 34.9714 105.371 34.6514 105.136C34.342 104.891 33.9527 104.768 33.4834 104.768C32.982 104.768 32.5127 104.875 32.0754 105.088C31.638 105.291 31.1634 105.643 30.6514 106.144L29.2754 104.464C29.9154 103.856 30.5927 103.397 31.3074 103.088C32.0327 102.779 32.7847 102.624 33.5634 102.624C34.3634 102.624 35.0567 102.763 35.6434 103.04C36.2407 103.307 36.7047 103.685 37.0354 104.176C37.366 104.656 37.5314 105.221 37.5314 105.872C37.5314 106.224 37.478 106.565 37.3714 106.896C37.2754 107.216 37.1207 107.531 36.9074 107.84C36.694 108.149 36.4167 108.469 36.0754 108.8L32.8434 111.92L37.6914 111.904V114H29.6434Z" fill="#87879D"/>
</svg>
